<?xml version="1.0" encoding="UTF-8"?>
<!DOCTYPE svg PUBLIC "-//W3C//DTD SVG 1.1//EN" "http://www.w3.org/Graphics/SVG/1.1/DTD/svg11.dtd">
<!-- Creator: CorelDRAW 2018 (64-Bit) -->
<svg xmlns="http://www.w3.org/2000/svg" xml:space="preserve" width="1384px" height="308px" version="1.1" style="shape-rendering:geometricPrecision; text-rendering:geometricPrecision; image-rendering:optimizeQuality; fill-rule:evenodd; clip-rule:evenodd"
viewBox="0 0 1279.18 284.74"
 xmlns:xlink="http://www.w3.org/1999/xlink">
 <defs>
  <style type="text/css">
   <![CDATA[
    .fil0 {fill:#FF6600;fill-rule:nonzero}
   ]]>
  </style>
 </defs>
 <g id="Layer_x0020_1">
  <metadata id="CorelCorpID_0Corel-Layer"/>
  <path class="fil0" d="M0 279.94l60.39 0 0 -181.56 77.98 118.38 1.6 0 78.78 -119.58 0 182.76 61.19 0 0 -279.94 -66.38 0 -73.59 118.38 -73.58 -118.38 -66.39 0 0 279.94zm1258.34 -191.06c0,-8.17 -2.62,-15.14 -7.86,-20.91 -5.24,-5.76 -11.69,-8.65 -19.33,-8.65 -7.65,0 -14.09,2.89 -19.34,8.65 -5.24,5.77 -7.86,12.74 -7.86,20.91 0,8.17 2.62,15.11 7.86,20.84 5.25,5.72 11.69,8.58 19.34,8.58 7.64,0 14.09,-2.86 19.33,-8.58 5.24,-5.73 7.86,-12.67 7.86,-20.84zm6.95 33.68c-9.26,9.05 -20.67,13.57 -34.21,13.57 -13.54,0 -24.94,-4.52 -34.21,-13.57 -9.26,-9.04 -13.89,-20.29 -13.89,-33.75 0,-13.45 4.63,-24.7 13.89,-33.75 9.27,-9.04 20.67,-13.56 34.21,-13.56 13.54,0 24.95,4.52 34.21,13.56 9.26,9.05 13.89,20.3 13.89,33.75 0,13.46 -4.63,24.71 -13.89,33.75zm-97.12 -48.56c0,14.68 -5.81,24.16 -17.43,28.44l23.2 32.77 -25.17 0 -20.31 -29.23 -14.16 0 0 29.23 -20.45 0 0 -91.62 34.74 0c14.24,0 24.4,2.41 30.47,7.21 6.07,4.81 9.11,12.54 9.11,23.2zm-38.93 14.29c6.99,0 11.75,-1.14 14.29,-3.41 2.53,-2.27 3.8,-5.88 3.8,-10.81 0,-4.94 -1.31,-8.32 -3.93,-10.16 -2.62,-1.83 -7.21,-2.75 -13.76,-2.75l-15.34 0 0 27.13 14.94 0zm-91.74 -44.7c14.06,0 24.31,2.74 30.73,8.2 6.42,5.46 9.63,13.85 9.63,25.16 0,11.32 -3.29,19.6 -9.89,24.84 -6.6,5.24 -16.67,7.86 -30.21,7.86l-12.19 0 0 25.56 -20.45 0 0 -91.62 32.38 0zm1.83 48.37c6.82,0 11.45,-1.38 13.89,-4.13 2.45,-2.75 3.67,-6.77 3.67,-12.06 0,-5.29 -1.59,-9.04 -4.78,-11.27 -3.19,-2.23 -8.15,-3.34 -14.87,-3.34l-11.67 0 0 30.8 13.76 0zm-626.75 192.78c66.78,0 116.37,-49.99 116.37,-111.57l0 -0.8c0,-61.59 -49.19,-110.78 -115.58,-110.78 -66.78,0 -116.37,49.99 -116.37,111.58l0 0.79c0,61.59 49.19,110.78 115.58,110.78zm0.79 -52.38c-33.59,0 -56.38,-27.6 -56.38,-59.19l0 -0.8c0,-31.6 20.79,-58.39 55.59,-58.39 33.59,0 56.38,27.59 56.38,59.19l0 0.79c0,31.6 -20.79,58.4 -55.59,58.4zm198.63 51.18c20.39,0 35.19,-4.8 47.99,-12.39l0 -48.79c-8.8,4.79 -18.8,7.6 -30,7.6 -13.6,0 -19.6,-6.8 -19.6,-20.8l0 -91.58 50.4 0 0 -51.99 -50.4 0 0 -54.79 -60.78 0 0 54.79 -25.6 0 0 51.99 25.6 0 0 101.58c0,49.59 25.19,64.38 62.39,64.38zm131.43 0.4c30.79,0 48.79,-16.39 62.79,-34.39l0 30.39 60.79 0 0 -214.35 -60.79 0 0 119.57c0,28.8 -14.8,43.6 -38,43.6 -23.19,0 -36.79,-14.8 -36.79,-43.6l0 -119.57 -60.79 0 0 138.77c0,49.19 26.8,79.58 72.79,79.58zm219.82 0c46.38,0 81.98,-21.59 81.98,-69.18l0 -0.8c0,-39.19 -34.8,-53.59 -64.79,-63.59 -23.2,-8 -43.59,-13.59 -43.59,-25.59l0 -0.8c0,-8.4 7.6,-14.8 22.39,-14.8 7.15,0 15.48,1.59 24.44,4.52l0 -49.21c-7.8,-1.38 -15.61,-2.1 -23.24,-2.1 -43.19,0 -78.38,24.39 -78.38,67.98l0 0.8c0,41.6 33.99,55.59 63.99,64.39 23.59,7.2 44.39,11.6 44.39,24.8l0 0.8c0,9.59 -8,16 -25.6,16 -19.99,0 -44.39,-8.8 -67.58,-25.6l-26 39.99c28.4,22.4 61.99,32.39 91.99,32.39z"/>
 </g>
</svg>
